<svg width="24" height="24" viewBox="0 0 24 24" fill="none" xmlns="http://www.w3.org/2000/svg">
<path d="M17.7295 12.02L21.7095 8.04C22.0995 7.65 22.0995 7.02 21.7095 6.63L17.3695 2.29C16.9795 1.9 16.3495 1.9 15.9595 2.29L11.9795 6.27L7.99953 2.29C7.79953 2.1 7.54953 2 7.28953 2C7.03953 2 6.77953 2.1 6.58953 2.29L2.24953 6.63C1.85953 7.02 1.85953 7.65 2.24953 8.04L6.22953 12.02L2.24953 16C1.85953 16.39 1.85953 17.02 2.24953 17.41L6.58953 21.75C6.97953 22.14 7.60953 22.14 7.99953 21.75L11.9795 17.77L15.9595 21.75C16.1595 21.95 16.4095 22.04 16.6695 22.04C16.9295 22.04 17.1795 21.94 17.3795 21.75L21.7195 17.41C22.1095 17.02 22.1095 16.39 21.7195 16L17.7295 12.02ZM11.9995 9C12.5495 9 12.9995 9.45 12.9995 10C12.9995 10.55 12.5495 11 11.9995 11C11.4495 11 10.9995 10.55 10.9995 10C10.9995 9.45 11.4495 9 11.9995 9ZM7.28953 10.96L3.65953 7.34L7.28953 3.71L10.9095 7.33L7.28953 10.96ZM9.99953 13C9.44953 13 8.99953 12.55 8.99953 12C8.99953 11.45 9.44953 11 9.99953 11C10.5495 11 10.9995 11.45 10.9995 12C10.9995 12.55 10.5495 13 9.99953 13ZM11.9995 15C11.4495 15 10.9995 14.55 10.9995 14C10.9995 13.45 11.4495 13 11.9995 13C12.5495 13 12.9995 13.45 12.9995 14C12.9995 14.55 12.5495 15 11.9995 15ZM13.9995 11C14.5495 11 14.9995 11.45 14.9995 12C14.9995 12.55 14.5495 13 13.9995 13C13.4495 13 12.9995 12.55 12.9995 12C12.9995 11.45 13.4495 11 13.9995 11ZM16.6595 20.34L13.0295 16.72L16.6595 13.09L20.2795 16.71L16.6595 20.34Z" fill="#383535"/>
</svg>
