<svg width="17" height="24" viewBox="0 0 17 24" fill="none" xmlns="http://www.w3.org/2000/svg">
<rect width="16" height="24" fill="white"/>
<path fill-rule="evenodd" clip-rule="evenodd" d="M2.88925 1.7474C3.19707 2.10401 3.26004 2.88856 2.9732 3.43774C2.48349 4.32214 1.50406 4.42912 1.03534 3.52333C0.727519 2.78158 0.748507 2.04695 1.21723 1.26954C1.37814 1.01991 1.54604 0.784547 1.72793 0.57058C1.90983 0.356612 2.11271 0.235364 2.31559 0C2.31559 0.484993 2.37855 0.991382 2.56045 1.43358C2.78432 2.02556 2.60242 2.55334 2.42053 3.16672C2.6444 2.99554 2.70736 2.8529 2.82629 2.78871C2.93123 2.47489 2.94522 2.13254 2.88925 1.75453V1.7474Z" fill="#828282"/>
<path fill-rule="evenodd" clip-rule="evenodd" d="M0.159306 4.76436C2.32104 4.76436 4.48278 4.76436 6.64451 4.76436C12.0244 4.57179 15.3264 7.40329 15.9001 14.2146C15.9001 16.6182 15.9001 19.0217 15.9001 21.4253C14.5779 21.4467 13.2486 21.4681 11.9264 21.4895C15.1445 17.6309 15.1096 12.2532 11.9264 8.79408C9.45687 6.15515 5.54615 6.32632 2.99964 10.1849C1.1877 13.5584 0.942848 17.5239 4.04203 21.4895C2.71981 21.4895 1.39059 21.4895 0.0683594 21.4895C0.0893471 15.8978 0.15231 10.3346 0.166302 4.76436H0.159306Z" fill="#383535"/>
<path fill-rule="evenodd" clip-rule="evenodd" d="M8.04559 8.56583C10.718 8.56583 12.8938 11.4758 12.8938 15.0633C12.8938 18.6294 10.711 21.5394 8.04559 21.5394C5.37315 21.5394 3.19043 18.6294 3.19043 15.0633C3.19043 11.4758 5.37315 8.56583 8.04559 8.56583ZM8.04559 12.0036C8.04559 12.6811 8.04559 13.373 8.04559 14.0719C8.63325 14.0719 9.20691 14.0719 9.79457 14.0719C9.79457 15.3985 9.79457 16.7323 9.79457 18.0375C9.52872 21.0972 6.1427 20.4838 6.35258 18.0375C6.94024 18.0375 7.42995 18.0375 8.04559 18.0375C8.04559 17.3599 8.04559 16.6681 8.04559 15.9691C7.43695 15.9691 6.84229 15.9691 6.23365 15.9691C6.23365 14.6425 6.23365 13.3088 6.23365 12.0036C6.63941 9.15781 9.5567 9.38604 9.80156 12.0036C9.21391 12.0036 8.64024 12.0036 8.05259 12.0036H8.04559Z" fill="#383535"/>
<path fill-rule="evenodd" clip-rule="evenodd" d="M7.79979 20.1843C3.23146 19.0431 0.132274 15.4627 0.174249 4.76435C1.33557 4.74296 2.49689 4.76435 3.6792 4.74296C1.84627 13.7082 3.79813 18.1801 7.79979 20.1843Z" fill="#828282"/>
<path fill-rule="evenodd" clip-rule="evenodd" d="M7.79898 20.1842C3.11172 19.2784 0.642168 14.728 1.06892 4.75C2.25123 4.7286 1.25781 4.75 2.44012 4.75C1.21583 13.6938 3.09074 19.043 7.79898 20.1842Z" fill="#383535"/>
<path d="M0.965275 22.531L0.9233 22.4882L0.881324 22.4383C0.867332 22.424 0.853341 22.4097 0.839349 22.3955C0.832353 22.3883 0.825357 22.3812 0.818361 22.3741C0.797373 22.3598 0.783382 22.3456 0.776386 22.3384L0.671447 22.2528C0.643463 22.2314 0.608484 22.21 0.566508 22.1958C0.524533 22.1744 0.489553 22.1672 0.46157 22.1601C0.440582 22.1672 0.419594 22.1744 0.405603 22.1815C0.370623 22.1958 0.335644 22.2314 0.314656 22.2885C0.30766 22.3242 0.300664 22.3598 0.300664 22.3883V22.4311L0.30766 22.4811L0.321652 22.5167L0.328648 22.531H0.489553V22.6094H0.335644V23.5794H0.167742V22.6094H0.00683594V22.531H0.167742L0.160746 22.5167L0.146754 22.4668L0.132762 22.4097V22.3741C0.132762 22.3384 0.139758 22.2956 0.15375 22.26C0.195725 22.1387 0.286672 22.0745 0.419594 22.0745H0.489553C0.531529 22.0745 0.5805 22.0817 0.636468 22.1031C0.741406 22.1459 0.839349 22.21 0.930296 22.2885L1.06322 22.4097L1.11219 22.4739L1.16816 22.531H1.0982H0.979267H0.965275ZM1.21013 22.6166V23.5866H1.04223V23.3227L1.03523 23.3298V23.3369L0.979267 23.3583L0.9233 23.3655H0.853341C0.776386 23.3655 0.713422 23.3369 0.664451 23.287C0.636468 23.2585 0.61548 23.23 0.601488 23.1943C0.587496 23.1658 0.5805 23.1301 0.5805 23.0802C0.5805 23.0089 0.601488 22.9375 0.650459 22.8805C0.699431 22.8234 0.755398 22.7878 0.825357 22.7878H0.895316C0.902312 22.7878 0.916304 22.7878 0.930296 22.7949L0.965275 22.802L1.00025 22.8091C1.00725 22.8091 1.01425 22.8091 1.02824 22.8163L1.04923 22.9233H0.979267L0.958279 22.909L0.944287 22.9019L0.916304 22.8876L0.88832 22.8805C0.853341 22.8876 0.825357 22.9019 0.811365 22.9304C0.797373 22.9447 0.790377 22.9661 0.783382 22.9946C0.776386 23.0231 0.76939 23.0445 0.76939 23.073C0.76939 23.1372 0.783382 23.1872 0.811365 23.2228C0.825357 23.2442 0.839349 23.2513 0.846345 23.2585L0.895316 23.2799L0.916304 23.2727L0.937291 23.2656L0.958279 23.2585L0.979267 23.2442C1.00725 23.23 1.02124 23.2157 1.02824 23.2086C1.04223 23.1943 1.05622 23.18 1.06322 23.1586V22.6237H0.46157V22.5381H1.39902V22.6237H1.23112L1.21013 22.6166ZM2.35046 22.6166V23.5866H2.18256V23.3655L2.13359 23.4011L2.07063 23.4368C1.99367 23.4796 1.91672 23.501 1.83976 23.501H1.7698C1.74882 23.501 1.71384 23.4938 1.65787 23.4867C1.6089 23.4653 1.56692 23.4225 1.53894 23.3583C1.53194 23.3298 1.52495 23.3013 1.52495 23.2799C1.52495 23.2513 1.52495 23.23 1.53194 23.2157C1.53194 23.1943 1.53894 23.1729 1.55293 23.1586L1.56692 23.1444L1.58091 23.1301C1.55993 23.1301 1.52495 23.1087 1.48997 23.0659C1.47598 23.0516 1.46198 23.016 1.44799 22.9732C1.44799 22.9661 1.44799 22.9589 1.44799 22.9375C1.44799 22.8733 1.47598 22.8234 1.52495 22.7949L1.55993 22.7878L1.6089 22.7806H1.83976V22.6237H1.32906V22.5381H2.47639V22.6237H2.34347L2.35046 22.6166ZM2.18256 22.6166H2.00067V22.8591H1.70684C1.69985 22.8591 1.68585 22.8591 1.66487 22.8662C1.65787 22.8662 1.65087 22.8662 1.63688 22.8733C1.62989 22.8805 1.62289 22.8876 1.61589 22.9019L1.6089 22.9447C1.6089 22.9732 1.61589 23.0017 1.63688 23.0231L1.65787 23.0445L1.67186 23.0588L1.71384 23.0445L1.74182 23.0374H1.81178H1.84676H1.87474L1.93071 23.0445L1.96569 23.123H1.89573H1.88174H1.83277C1.79079 23.123 1.75581 23.1372 1.72783 23.1586C1.69985 23.18 1.68585 23.2157 1.68585 23.2585C1.68585 23.2799 1.69285 23.2941 1.69985 23.3155C1.70684 23.3298 1.72083 23.3512 1.73482 23.3655L1.7698 23.3869L1.81178 23.4011C1.82577 23.4011 1.83976 23.394 1.86775 23.394C1.91672 23.3726 1.95869 23.3583 1.98668 23.3369C2.00067 23.3298 2.02166 23.3155 2.04964 23.2941C2.1266 23.2442 2.16857 23.2086 2.18256 23.18V22.6094V22.6166ZM2.7982 22.6166V23.5866H2.6303V22.6166H2.4554V22.531H2.9731V22.6166H2.7982ZM3.62372 23.2656L3.56076 23.3155C3.4908 23.3726 3.40685 23.4011 3.3229 23.394H3.25294C3.22495 23.394 3.19697 23.3869 3.16899 23.3797C3.10602 23.3583 3.06405 23.3155 3.03606 23.2585C3.02207 23.23 3.01508 23.2014 3.01508 23.1729C3.01508 23.1301 3.02907 23.0802 3.05705 23.0374L3.07804 23.016L3.10602 22.9875C3.07104 22.9661 3.03606 22.9304 2.99409 22.8805L2.95911 22.8091C2.95211 22.7806 2.94512 22.7592 2.94512 22.7307C2.94512 22.6665 2.95911 22.6237 2.99409 22.5809C3.02907 22.5453 3.07104 22.5239 3.12701 22.5239H3.19697C3.21796 22.5239 3.23894 22.531 3.25993 22.5381C3.30191 22.5453 3.32989 22.5738 3.35088 22.6237C3.35787 22.6451 3.36487 22.6665 3.36487 22.6879V22.7521H3.21096V22.6879C3.21096 22.6736 3.20396 22.6594 3.19697 22.6451C3.18997 22.6308 3.18298 22.6166 3.16899 22.6094L3.148 22.6237L3.13401 22.6451L3.11302 22.6879L3.10602 22.7378C3.10602 22.7949 3.12001 22.8377 3.148 22.8733L3.17598 22.909L3.20396 22.9304L3.24594 22.9233L3.29491 22.9161H3.36487C3.37187 22.9161 3.38586 22.9161 3.39985 22.9233L3.43483 22.9304L3.47681 23.0089L3.35787 23.016C3.28092 23.0231 3.23195 23.0374 3.20396 23.0802C3.18298 23.1016 3.17598 23.1372 3.17598 23.18C3.17598 23.2228 3.18997 23.2513 3.21796 23.2799L3.25294 23.3013L3.29491 23.3155L3.33689 23.3013L3.38586 23.2799L3.42783 23.2513L3.47681 23.2157L3.51878 23.1729L3.56775 23.1158H3.63771V23.2228C3.63771 23.2371 3.63072 23.2442 3.60973 23.2585L3.62372 23.2656ZM3.51178 22.6166H3.38586V22.5381H3.51178V22.6166ZM3.38586 22.6166H3.51178H3.38586ZM3.8266 22.6166V23.5866H3.6587V22.6166H3.4838V22.531H4.0015V22.6166H3.8266ZM4.79903 22.6166V23.5866H4.63113V22.9803H4.36529V23.1586V23.1872C4.36529 23.1943 4.36529 23.1943 4.35829 23.2014L4.3443 23.2157L4.32331 23.2228H4.25335C4.24636 23.2228 4.23236 23.2157 4.21138 23.2014L4.14841 23.123C4.12742 23.1016 4.10644 23.073 4.09244 23.0302C4.07845 23.0089 4.07146 22.9875 4.07146 22.9732C4.07146 22.9447 4.07845 22.9233 4.09944 22.9161L4.11343 22.909H4.13442H4.63113V22.6308H3.95952V22.5453H4.94595V22.6308H4.79903V22.6166ZM5.74348 22.6166V23.5866H5.57558V23.073H5.31673V23.2157V23.2371C5.31673 23.2371 5.31673 23.2442 5.31673 23.2513L5.30274 23.2656L5.28175 23.2727H5.21179C5.1978 23.2727 5.18381 23.2656 5.16282 23.2513C5.16282 23.2513 5.14883 23.2371 5.13484 23.2228C5.10685 23.1872 5.08586 23.1586 5.06488 23.1444C5.03689 23.1087 5.0229 23.073 5.0229 23.0516L5.0299 23.0231C5.03689 23.016 5.04389 23.0089 5.05088 23.0017L5.05788 22.9946L5.07887 22.9875H5.15582V22.6237H4.92496V22.5381H5.8764V22.6237H5.74348V22.6166ZM5.57558 22.6166H5.31673V22.9803H5.57558V22.6166ZM5.8834 24.0002H5.81344L5.57558 23.7007L5.65953 23.6579H5.72949L5.92537 23.9503L5.89039 24.0002H5.8834ZM7.69534 22.6166V23.5866H7.52743V23.0588H7.27558L7.21262 22.9732H7.52743V22.6166H7.26159V22.9589C7.26159 22.9732 7.25459 22.9803 7.25459 22.9803L7.2406 23.0231C7.23361 23.0374 7.21961 23.0588 7.20562 23.073C7.19163 23.0873 7.17064 23.0944 7.14266 23.1016C7.13566 23.1016 7.12867 23.1016 7.12167 23.1087H7.10068H7.00974C7.00274 23.1087 6.99575 23.1087 6.98175 23.1016H7.05171L7.16365 23.2941L7.21262 23.3655L7.29657 23.4796L7.33155 23.5224L7.25459 23.5937H7.18464C7.16365 23.5866 7.13566 23.5509 7.10068 23.4938L6.87682 23.1301L6.82784 23.0374L6.79286 22.9732L6.75789 22.909L6.83484 22.8519H6.9048L6.96077 22.9661C6.96776 22.9875 6.98175 23.0017 6.98875 23.0089L7.03073 23.0302L7.04472 23.0231L7.05871 23.0089L7.0727 22.9803V22.9375V22.909V22.6308H6.64595V22.5453H7.82126V22.6308H7.67435L7.69534 22.6166ZM8.56983 22.6166V23.5866H8.40192V23.3227L8.39493 23.3298V23.3369L8.33896 23.3583L8.28299 23.3655H8.21303C8.13608 23.3655 8.07312 23.3369 8.02414 23.287C7.99616 23.2585 7.97517 23.23 7.96118 23.1943C7.94719 23.1658 7.94019 23.1301 7.94019 23.0802C7.94019 23.0089 7.96118 22.9375 8.01015 22.8805C8.05912 22.8234 8.11509 22.7878 8.18505 22.7878H8.25501C8.269 22.7878 8.276 22.7878 8.28299 22.7949L8.31797 22.802L8.35295 22.8091C8.35995 22.8091 8.36694 22.8091 8.38094 22.8163L8.40192 22.9233H8.33196L8.31098 22.909L8.29698 22.9019L8.269 22.8876L8.24102 22.8805C8.20604 22.8876 8.17805 22.9019 8.16406 22.9304C8.15007 22.9447 8.14307 22.9661 8.13608 22.9946C8.12908 23.0231 8.12209 23.0445 8.12209 23.073C8.12209 23.1372 8.13608 23.1872 8.16406 23.2228C8.17805 23.2442 8.19205 23.2513 8.19904 23.2585L8.24801 23.2799L8.269 23.2727L8.28999 23.2656L8.31098 23.2585L8.33196 23.2442C8.35995 23.23 8.37394 23.2157 8.38094 23.2086C8.39493 23.1943 8.40892 23.18 8.41592 23.1586V22.6237H7.81427V22.5381H8.75172V22.6237H8.58382L8.56983 22.6166ZM8.63978 22.1387L8.62579 22.1316L8.59781 22.1245C8.57682 22.1316 8.55583 22.1387 8.54184 22.1601C8.52785 22.1744 8.52085 22.1886 8.51386 22.2029C8.50686 22.2172 8.50686 22.2386 8.50686 22.2671C8.50686 22.3028 8.51386 22.3313 8.52085 22.3669C8.52785 22.3955 8.54184 22.4311 8.56283 22.4597L8.59081 22.4953L8.62579 22.5453H8.54884H8.47888L8.47188 22.5381C8.46489 22.5381 8.46489 22.5239 8.45789 22.5167L8.41592 22.4454C8.40192 22.4169 8.38793 22.3812 8.36694 22.3313C8.35295 22.2956 8.35295 22.26 8.35295 22.2314C8.35295 22.1744 8.37394 22.1316 8.40892 22.1031C8.4439 22.0674 8.49287 22.0531 8.54884 22.0531H8.6188C8.6188 22.0531 8.62579 22.0531 8.63978 22.0531C8.64678 22.0531 8.66077 22.0531 8.67476 22.0603L8.72373 22.0817V22.1601H8.65378L8.63978 22.153V22.1387ZM9.4653 23.2656L9.40234 23.3155C9.33238 23.3726 9.24843 23.4011 9.16448 23.394H9.09452C9.06653 23.394 9.03855 23.3869 9.01057 23.3797C8.9476 23.3583 8.90563 23.3155 8.87764 23.2585C8.86365 23.23 8.85666 23.2014 8.85666 23.1729C8.85666 23.1301 8.87065 23.0802 8.90563 23.0374L8.91962 23.016L8.9476 22.9875C8.91262 22.9661 8.87764 22.9304 8.83567 22.8805L8.80069 22.8091C8.79369 22.7806 8.7867 22.7592 8.7867 22.7307C8.7867 22.6665 8.80069 22.6237 8.83567 22.5809C8.87065 22.5453 8.91262 22.5239 8.96859 22.5239H9.03855C9.06653 22.5239 9.08053 22.531 9.10151 22.5381C9.14349 22.5453 9.17147 22.5738 9.19246 22.6237C9.19946 22.6451 9.20645 22.6665 9.20645 22.6879V22.7521H9.05254V22.6879C9.05254 22.6736 9.05254 22.6594 9.04555 22.6451C9.03855 22.6308 9.03156 22.6166 9.01756 22.6094L8.99658 22.6237L8.98258 22.6451L8.9616 22.6879L8.9546 22.7378C8.9546 22.7949 8.96859 22.8377 8.99658 22.8733L9.02456 22.909L9.05254 22.9304L9.09452 22.9233L9.15049 22.9161H9.22044C9.23444 22.9161 9.24143 22.9161 9.24843 22.9233L9.28341 22.9304L9.32538 23.0089L9.20645 23.016C9.1295 23.0231 9.08053 23.0374 9.05254 23.0802C9.03156 23.1016 9.02456 23.1372 9.02456 23.18C9.02456 23.2228 9.03855 23.2513 9.06653 23.2799L9.10151 23.3013L9.14349 23.3155L9.18546 23.3013L9.23444 23.2799L9.27641 23.2513L9.32538 23.2157L9.36736 23.1729L9.41633 23.1158H9.48629V23.2228C9.48629 23.2371 9.47929 23.2442 9.45831 23.2585L9.4653 23.2656ZM9.35337 22.6166H9.22744V22.5381H9.35337V22.6166ZM9.22744 22.6166H9.35337H9.22744ZM9.66818 22.6166V23.5866H9.50028V22.6166H9.32538V22.531H9.85008V22.6166H9.67518H9.66818ZM10.6406 22.6166V23.5866H10.4727V22.9803H10.2069V23.1586V23.1872C10.2069 23.1943 10.2069 23.1943 10.1999 23.2014L10.1859 23.2157L10.1649 23.2228H10.0949C10.0879 23.2228 10.0739 23.2157 10.053 23.2014L9.983 23.123C9.96201 23.1016 9.94802 23.073 9.92703 23.0302C9.91304 23.0089 9.90604 22.9875 9.90604 22.9732C9.90604 22.9447 9.91304 22.9233 9.93403 22.9161L9.94802 22.909H9.96901H10.4657V22.6308H9.79411V22.5453H10.7805V22.6308H10.6336L10.6406 22.6166ZM10.7875 22.3028H10.5916V22.1672H10.7875V22.3028ZM10.5916 22.3028H10.7875H10.5916ZM12.3476 22.6166V23.5866H12.1797V23.2371C12.1657 23.2513 12.1447 23.2585 12.1167 23.2727L12.0608 23.2799H11.9908C11.9139 23.2799 11.8509 23.2513 11.8089 23.2014C11.7949 23.1872 11.7809 23.1586 11.753 23.1087C11.739 23.073 11.732 23.0374 11.732 23.0017V22.6237H11.5921V22.5381H12.4945V22.6237H12.3476V22.6166ZM12.1797 22.6166H11.8999V23.0089C11.8999 23.073 11.9209 23.123 11.9558 23.1515L11.9838 23.18L12.0188 23.1943C12.0258 23.1943 12.0258 23.1943 12.0328 23.1872C12.0398 23.1872 12.0398 23.1872 12.0468 23.1872C12.0608 23.18 12.0678 23.18 12.0748 23.1729C12.0888 23.1658 12.1028 23.1515 12.1307 23.1301L12.1517 23.1016L12.1797 23.0588V22.6166ZM11.8999 23.5866H11.8299L11.767 23.5081L12.2707 23.1515H12.3406V23.2371L11.8999 23.5866ZM13.2431 23.2656L13.1801 23.3155C13.1102 23.3726 13.0262 23.4011 12.9423 23.394H12.8723C12.8443 23.394 12.8163 23.3869 12.7884 23.3797C12.7254 23.3583 12.6834 23.3155 12.6554 23.2585C12.6414 23.23 12.6344 23.2014 12.6344 23.1729C12.6344 23.1301 12.6484 23.0802 12.6834 23.0374L12.6974 23.016L12.7254 22.9875C12.6904 22.9661 12.6554 22.9304 12.6135 22.8805L12.5785 22.8091C12.5715 22.7806 12.5645 22.7592 12.5645 22.7307C12.5645 22.6665 12.5785 22.6237 12.6135 22.5809C12.6484 22.5453 12.6904 22.5239 12.7464 22.5239H12.8163C12.8443 22.5239 12.8583 22.531 12.8793 22.5381C12.9213 22.5453 12.9493 22.5738 12.9703 22.6237C12.9772 22.6451 12.9842 22.6665 12.9842 22.6879V22.7521H12.8303V22.6879C12.8303 22.6736 12.8303 22.6594 12.8233 22.6451C12.8163 22.6308 12.8093 22.6166 12.7884 22.6094L12.7674 22.6237L12.7534 22.6451L12.7324 22.6879L12.7254 22.7378C12.7254 22.7949 12.7394 22.8377 12.7674 22.8733L12.7954 22.909L12.8233 22.9304L12.8653 22.9233L12.9213 22.9161H12.9912C13.0052 22.9161 13.0122 22.9161 13.0262 22.9233L13.0612 22.9304L13.1032 23.0089L12.9842 23.016C12.9073 23.0231 12.8583 23.0374 12.8303 23.0802C12.8093 23.1016 12.8023 23.1372 12.8023 23.18C12.8023 23.2228 12.8163 23.2513 12.8443 23.2799L12.8793 23.3013L12.9213 23.3155L12.9633 23.3013L13.0122 23.2799L13.0542 23.2513L13.1032 23.2157L13.1451 23.1729L13.1941 23.1158H13.2641V23.2228C13.2641 23.2371 13.2571 23.2442 13.2361 23.2585L13.2431 23.2656ZM13.1312 22.6166H13.0052V22.5381H13.1312V22.6166ZM13.0052 22.6166H13.1312H13.0052ZM13.446 22.6166V23.5866H13.2781V22.6166H13.1032V22.531H13.6209V22.6166H13.446ZM13.9077 22.6166V23.5866H13.7398V22.6166H13.5649V22.531H14.0826V22.6166H13.9077ZM14.8801 22.6166V23.5866H14.7122V22.9803H14.4464V23.1586V23.1872C14.4464 23.1943 14.4464 23.1943 14.4394 23.2014L14.4254 23.2157L14.4044 23.2228H14.3345C14.3275 23.2228 14.3135 23.2157 14.2925 23.2014L14.2225 23.123C14.2015 23.1016 14.1805 23.073 14.1665 23.0302C14.1526 23.0089 14.1456 22.9875 14.1456 22.9732C14.1456 22.9447 14.1596 22.9233 14.1735 22.9161L14.1875 22.909H14.2085H14.7052V22.6308H14.0336V22.5453H15.0201V22.6308H14.8731L14.8801 22.6166ZM15.8246 22.6166V23.5866H15.6567V23.073H15.3978V23.2157V23.2371C15.3978 23.2371 15.3978 23.2442 15.3908 23.2513L15.3768 23.2656L15.3559 23.2727H15.2859C15.2719 23.2727 15.2579 23.2656 15.2439 23.2513C15.2369 23.2513 15.2299 23.2371 15.2159 23.2228C15.188 23.1872 15.16 23.1586 15.146 23.1444C15.118 23.1087 15.104 23.073 15.104 23.0516L15.111 23.0231C15.118 23.016 15.125 23.0089 15.132 23.0017L15.139 22.9946L15.16 22.9875H15.2369V22.6237H15.0061V22.5381H15.9575V22.6237H15.8246V22.6166ZM15.6567 22.6166H15.3978V22.9803H15.6567V22.6166ZM15.9645 24.0002H15.8945L15.6567 23.7007L15.7406 23.6579H15.8106L16.0065 23.9503L15.9715 24.0002H15.9645Z" fill="#828282"/>
</svg>
